<?xml version="1.0" standalone="no"?>
<!DOCTYPE svg PUBLIC "-//W3C//DTD SVG 20010904//EN"
 "http://www.w3.org/TR/2001/REC-SVG-20010904/DTD/svg10.dtd">
<svg version="1.0" xmlns="http://www.w3.org/2000/svg"
 width="1080.000000pt" height="1080.000000pt" viewBox="0 0 1080.000000 1080.000000"
 preserveAspectRatio="xMidYMid meet">

<g transform="translate(0.000000,1080.000000) scale(0.100000,-0.100000)"
fill="#000000" stroke="none">
<path d="M3130 5400 c0 -467 3 -710 10 -710 7 0 10 243 10 710 0 467 -3 710
-10 710 -7 0 -10 -243 -10 -710z"/>
<path d="M3647 5793 c-4 -3 -7 -42 -7 -85 l0 -78 44 0 44 0 -2 -231 -1 -231
-36 6 c-24 4 -40 1 -47 -7 -10 -12 -7 -140 3 -158 10 -15 413 -11 500 6 196
37 298 160 312 376 7 107 -11 174 -67 249 -54 73 -99 104 -193 135 -74 24 -89
25 -311 25 -128 0 -236 -3 -239 -7z m514 -197 c49 -33 72 -86 77 -173 5 -81
-8 -130 -46 -175 -37 -44 -79 -58 -172 -58 l-80 0 -2 118 c-1 143 3 294 9 305
2 4 43 7 91 7 76 0 92 -3 123 -24z"/>
<path d="M4522 5718 l3 -83 40 -3 41 -3 -1 -224 c0 -178 -3 -226 -13 -230 -8
-3 -18 -3 -23 1 -5 3 -18 2 -29 -1 -19 -6 -21 -14 -18 -88 l3 -82 280 0 c329
0 363 6 432 77 47 49 63 83 63 136 0 59 -17 105 -56 151 l-36 42 20 22 c44 47
62 125 46 205 -9 44 -65 105 -121 133 -46 23 -58 24 -341 27 l-293 4 3 -84z
m518 -108 c31 -31 30 -85 -2 -113 -18 -15 -37 -17 -122 -15 l-101 3 -3 49 c-6
96 -6 96 108 96 87 0 103 -3 120 -20z m11 -301 c48 -25 44 -105 -7 -128 -14
-6 -69 -11 -123 -11 -111 0 -111 0 -111 75 0 75 0 75 117 75 57 0 113 -5 124
-11z"/>
<path d="M5564 5787 c-3 -8 -4 -47 -2 -88 l3 -74 35 -5 c44 -7 44 -10 -25
-165 -126 -284 -120 -273 -168 -277 l-42 -3 3 -80 c2 -44 7 -83 11 -88 4 -4
88 -6 187 -5 l179 3 6 40 c10 60 -2 119 -26 123 -31 6 -38 17 -30 51 l7 32
141 -3 141 -3 6 -25 c9 -34 2 -50 -27 -61 -23 -8 -24 -13 -21 -81 l3 -73 165
-3 c91 -1 175 0 188 3 22 5 23 9 20 88 l-3 82 -38 3 c-48 4 -52 11 -131 209
-35 88 -80 191 -99 229 -20 38 -47 95 -61 127 l-25 57 -196 0 c-155 0 -197 -3
-201 -13z m315 -273 c34 -89 31 -96 -36 -92 -43 2 -59 7 -61 18 -4 24 46 130
61 130 8 0 24 -25 36 -56z"/>
<path d="M6413 5793 c-17 -6 -18 -144 -1 -161 7 -7 26 -12 43 -12 l32 0 6
-127 c9 -168 8 -285 -1 -300 -4 -6 -25 -13 -47 -15 l-40 -3 0 -85 0 -85 190 0
190 0 3 88 3 87 -41 0 -40 0 0 120 c0 66 3 120 8 120 4 0 27 -26 50 -57 24
-32 91 -123 150 -203 106 -143 108 -145 155 -154 28 -6 66 -6 94 0 l48 9 3
302 2 302 43 8 42 9 3 73 c2 53 -1 77 -10 82 -22 14 -356 11 -364 -3 -4 -6
-10 -47 -12 -90 l-5 -78 42 0 41 0 0 -72 c0 -40 3 -90 6 -110 10 -57 -17 -49
-69 18 -23 31 -69 91 -103 133 -33 42 -72 94 -86 116 -14 22 -37 52 -51 68
-26 27 -27 27 -149 26 -68 0 -129 -3 -135 -6z"/>
<path d="M7401 5710 l0 -90 45 0 44 0 -2 -222 -3 -223 -40 -5 -40 -5 -3 -56
c-2 -30 1 -67 7 -80 9 -25 10 -25 147 -27 77 -2 156 0 176 3 33 6 37 10 43 46
4 21 4 57 0 78 -6 36 -10 40 -38 43 -29 3 -32 7 -35 40 -3 33 1 39 37 63 22
15 47 25 55 23 9 -1 43 -37 76 -78 59 -75 60 -75 60 -141 l0 -66 38 -7 c69
-11 267 -7 285 7 14 10 16 24 10 84 l-6 72 -46 3 c-45 3 -47 5 -109 88 -34 47
-81 107 -102 134 -22 26 -40 51 -40 55 0 3 42 42 93 87 77 68 99 82 136 87 24
3 48 11 52 19 10 15 12 102 3 136 l-6 22 -192 -2 -191 -3 0 -75 c0 -67 2 -75
23 -86 22 -11 19 -14 -65 -83 -48 -39 -94 -71 -100 -71 -9 0 -13 21 -13 69 0
69 0 70 28 73 l27 3 0 85 0 85 -177 3 -176 2 -1 -90z"/>
<path d="M8354 5787 c-3 -8 -4 -47 -2 -88 l3 -74 42 2 c41 2 42 1 47 -35 9
-55 0 -392 -10 -402 -5 -5 -25 -10 -44 -12 l-35 -3 -3 -81 c-3 -78 -2 -82 20
-85 13 -2 102 -2 198 1 l175 5 0 75 0 75 -30 3 c-38 5 -55 19 -55 46 0 36 13
45 55 39 34 -4 47 -14 85 -61 42 -52 45 -59 45 -116 l0 -61 155 0 155 0 3 73
c4 89 -5 102 -67 102 -43 1 -48 4 -79 45 -19 24 -31 49 -27 55 4 6 25 22 47
36 58 37 88 106 88 204 0 65 -4 82 -29 126 -39 67 -89 110 -153 129 -71 21
-576 23 -584 2z m524 -189 c28 -31 36 -70 22 -113 -15 -46 -29 -52 -134 -61
-70 -5 -90 -4 -97 7 -10 16 -12 172 -2 182 3 4 48 7 98 7 82 0 94 -2 113 -22z"/>
<path d="M1870 5695 c0 -20 5 -25 25 -25 20 0 25 5 25 25 0 20 -5 25 -25 25
-20 0 -25 -5 -25 -25z"/>
<path d="M1970 5694 c0 -21 4 -25 23 -22 14 2 23 11 25 26 3 18 -1 22 -22 22
-21 0 -26 -5 -26 -26z"/>
<path d="M2060 5695 c0 -20 5 -25 25 -25 20 0 25 5 25 25 0 20 -5 25 -25 25
-20 0 -25 -5 -25 -25z"/>
<path d="M2160 5695 l0 -26 148 3 c144 3 147 3 150 26 3 22 3 22 -147 22
l-151 0 0 -25z"/>
<path d="M1726 5604 c-3 -8 -6 -31 -6 -50 l0 -34 -60 0 c-57 0 -60 -1 -60 -25
0 -24 3 -25 60 -25 33 0 60 -4 60 -10 0 -5 11 -10 25 -10 24 0 25 3 25 60 l0
60 440 0 440 0 0 -220 0 -220 -440 0 c-287 0 -440 3 -440 10 0 6 -11 10 -25
10 -20 0 -25 -5 -25 -24 0 -13 6 -29 14 -35 9 -8 146 -10 487 -9 l474 3 0 265
0 265 -481 3 c-433 2 -482 1 -488 -14z"/>
<path d="M1895 5505 c-3 -8 -7 -22 -10 -30 -3 -9 -18 -21 -35 -26 l-30 -11 0
-89 c0 -77 3 -90 18 -95 34 -11 47 -21 52 -45 6 -23 9 -24 90 -24 78 0 85 2
85 20 0 17 -8 20 -58 23 -52 3 -62 7 -98 43 -32 32 -39 46 -39 79 0 33 7 47
39 79 36 36 46 40 98 43 50 3 58 6 58 23 0 18 -8 20 -83 23 -67 2 -83 0 -87
-13z"/>
<path d="M2135 5500 c-112 -56 -126 -219 -24 -287 92 -60 209 -30 251 65 66
148 -83 294 -227 222z m130 -46 c82 -38 85 -168 5 -209 -49 -25 -96 -19 -136
18 -62 57 -56 136 15 184 40 27 71 29 116 7z"/>
<path d="M2360 5495 c0 -24 3 -25 55 -25 50 0 58 -3 95 -39 36 -35 40 -43 40
-90 0 -38 -4 -51 -14 -51 -8 0 -24 -13 -36 -30 -20 -28 -26 -30 -81 -30 -56 0
-59 -1 -59 -25 0 -25 1 -25 80 -25 68 0 81 3 86 18 11 34 21 47 45 52 23 6 24
9 24 100 0 91 -1 94 -24 100 -24 5 -34 18 -45 53 -5 14 -18 17 -86 17 -79 0
-80 0 -80 -25z"/>
<path d="M1570 5395 c0 -20 5 -25 25 -25 20 0 25 5 25 25 0 20 -5 25 -25 25
-20 0 -25 -5 -25 -25z"/>
<path d="M1672 5398 c3 -21 8 -23 63 -23 53 0 60 2 60 20 0 18 -8 20 -63 23
-61 3 -63 2 -60 -20z"/>
<path d="M1722 5303 c3 -41 6 -48 26 -51 20 -3 22 0 22 47 0 48 -2 51 -26 51
-24 0 -25 -2 -22 -47z"/>
<path d="M1570 5305 c0 -23 3 -25 50 -25 47 0 50 2 50 25 0 23 -3 25 -50 25
-47 0 -50 -2 -50 -25z"/>
<path d="M1624 5215 c-11 -28 11 -36 92 -33 71 3 79 5 79 23 0 18 -8 20 -83
23 -68 2 -83 0 -88 -13z"/>
<path d="M1800 5005 c0 -18 5 -25 20 -25 15 0 20 7 20 25 0 18 -5 25 -20 25
-15 0 -20 -7 -20 -25z"/>
<path d="M1892 5008 c2 -15 11 -24 26 -26 18 -3 22 1 22 22 0 21 -5 26 -26 26
-21 0 -25 -4 -22 -22z"/>
<path d="M1992 5008 c3 -22 7 -23 98 -23 88 0 95 1 95 20 0 18 -8 20 -98 23
-98 3 -98 3 -95 -20z"/>
</g>
</svg>
